<mxfile host="Electron" modified="2023-10-07T09:48:51.168Z" agent="Mozilla/5.0 (Macintosh; Intel Mac OS X 10_15_7) AppleWebKit/537.36 (KHTML, like Gecko) draw.io/22.0.2 Chrome/114.0.5735.289 Electron/25.8.4 Safari/537.36" etag="RFmOMwOb0mdnD-Ndqaqc" version="22.0.2" type="device">
  <diagram name="Page-1" id="pbcrlHR0grRaN532ZgFZ">
    <mxGraphModel dx="465" dy="341" grid="1" gridSize="10" guides="1" tooltips="1" connect="1" arrows="1" fold="1" page="1" pageScale="1" pageWidth="827" pageHeight="1169" math="0" shadow="0">
      <root>
        <mxCell id="0" />
        <mxCell id="1" parent="0" />
        <mxCell id="WvK9PsSX0R_uizibyhHt-1" value="" style="shape=mxgraph.cisco.switches.workgroup_switch;sketch=0;html=1;pointerEvents=1;dashed=0;fillColor=#036897;strokeColor=#ffffff;strokeWidth=2;verticalLabelPosition=bottom;verticalAlign=top;align=center;outlineConnect=0;" parent="1" vertex="1">
          <mxGeometry x="260" y="230" width="101" height="50" as="geometry" />
        </mxCell>
        <mxCell id="WvK9PsSX0R_uizibyhHt-19" style="edgeStyle=orthogonalEdgeStyle;rounded=0;orthogonalLoop=1;jettySize=auto;html=1;exitX=0.5;exitY=0.98;exitDx=0;exitDy=0;exitPerimeter=0;endArrow=none;endFill=0;strokeWidth=3;entryX=0.11;entryY=0.5;entryDx=0;entryDy=0;entryPerimeter=0;" parent="1" source="WvK9PsSX0R_uizibyhHt-2" target="WvK9PsSX0R_uizibyhHt-10" edge="1">
          <mxGeometry relative="1" as="geometry">
            <Array as="points">
              <mxPoint x="731" y="360" />
              <mxPoint x="909" y="360" />
            </Array>
          </mxGeometry>
        </mxCell>
        <mxCell id="WvK9PsSX0R_uizibyhHt-24" value="&lt;font style=&quot;font-size: 18px;&quot;&gt;VLAN 30&lt;/font&gt;" style="edgeLabel;html=1;align=center;verticalAlign=middle;resizable=0;points=[];" parent="WvK9PsSX0R_uizibyhHt-19" vertex="1" connectable="0">
          <mxGeometry x="0.4571" y="1" relative="1" as="geometry">
            <mxPoint as="offset" />
          </mxGeometry>
        </mxCell>
        <mxCell id="WvK9PsSX0R_uizibyhHt-21" style="edgeStyle=orthogonalEdgeStyle;rounded=0;orthogonalLoop=1;jettySize=auto;html=1;exitX=0.98;exitY=0.5;exitDx=0;exitDy=0;exitPerimeter=0;strokeWidth=3;endArrow=none;endFill=0;entryX=0.11;entryY=0.5;entryDx=0;entryDy=0;entryPerimeter=0;" parent="1" source="WvK9PsSX0R_uizibyhHt-2" target="WvK9PsSX0R_uizibyhHt-9" edge="1">
          <mxGeometry relative="1" as="geometry" />
        </mxCell>
        <mxCell id="WvK9PsSX0R_uizibyhHt-22" value="&lt;font style=&quot;font-size: 18px;&quot;&gt;VLAN 20&lt;/font&gt;" style="edgeLabel;html=1;align=center;verticalAlign=middle;resizable=0;points=[];" parent="WvK9PsSX0R_uizibyhHt-21" vertex="1" connectable="0">
          <mxGeometry x="-0.0721" y="1" relative="1" as="geometry">
            <mxPoint as="offset" />
          </mxGeometry>
        </mxCell>
        <mxCell id="WvK9PsSX0R_uizibyhHt-2" value="" style="shape=mxgraph.cisco.switches.workgroup_switch;sketch=0;html=1;pointerEvents=1;dashed=0;fillColor=#036897;strokeColor=#ffffff;strokeWidth=2;verticalLabelPosition=bottom;verticalAlign=top;align=center;outlineConnect=0;" parent="1" vertex="1">
          <mxGeometry x="680" y="230" width="101" height="50" as="geometry" />
        </mxCell>
        <mxCell id="WvK9PsSX0R_uizibyhHt-14" style="edgeStyle=orthogonalEdgeStyle;rounded=0;orthogonalLoop=1;jettySize=auto;html=1;exitX=0.755;exitY=0.5;exitDx=0;exitDy=0;exitPerimeter=0;endArrow=none;endFill=0;strokeWidth=3;" parent="1" source="WvK9PsSX0R_uizibyhHt-3" target="WvK9PsSX0R_uizibyhHt-1" edge="1">
          <mxGeometry relative="1" as="geometry">
            <mxPoint x="320" y="220" as="targetPoint" />
          </mxGeometry>
        </mxCell>
        <mxCell id="WvK9PsSX0R_uizibyhHt-15" value="&lt;font style=&quot;font-size: 18px;&quot;&gt;VLAN 10&lt;/font&gt;" style="edgeLabel;html=1;align=center;verticalAlign=middle;resizable=0;points=[];" parent="WvK9PsSX0R_uizibyhHt-14" vertex="1" connectable="0">
          <mxGeometry x="-0.3813" relative="1" as="geometry">
            <mxPoint as="offset" />
          </mxGeometry>
        </mxCell>
        <mxCell id="WvK9PsSX0R_uizibyhHt-3" value="" style="shape=mxgraph.cisco.computers_and_peripherals.workstation;sketch=0;html=1;pointerEvents=1;dashed=0;fillColor=#036897;strokeColor=#ffffff;strokeWidth=2;verticalLabelPosition=bottom;verticalAlign=top;align=center;outlineConnect=0;" parent="1" vertex="1">
          <mxGeometry x="30" y="110" width="83" height="62" as="geometry" />
        </mxCell>
        <mxCell id="WvK9PsSX0R_uizibyhHt-4" value="" style="shape=mxgraph.cisco.computers_and_peripherals.workstation;sketch=0;html=1;pointerEvents=1;dashed=0;fillColor=#036897;strokeColor=#ffffff;strokeWidth=2;verticalLabelPosition=bottom;verticalAlign=top;align=center;outlineConnect=0;" parent="1" vertex="1">
          <mxGeometry x="30" y="224" width="83" height="62" as="geometry" />
        </mxCell>
        <mxCell id="WvK9PsSX0R_uizibyhHt-5" value="" style="shape=mxgraph.cisco.computers_and_peripherals.workstation;sketch=0;html=1;pointerEvents=1;dashed=0;fillColor=#036897;strokeColor=#ffffff;strokeWidth=2;verticalLabelPosition=bottom;verticalAlign=top;align=center;outlineConnect=0;" parent="1" vertex="1">
          <mxGeometry x="30" y="330" width="83" height="62" as="geometry" />
        </mxCell>
        <mxCell id="WvK9PsSX0R_uizibyhHt-8" value="" style="shape=mxgraph.cisco.computers_and_peripherals.workstation;sketch=0;html=1;pointerEvents=1;dashed=0;fillColor=#036897;strokeColor=#ffffff;strokeWidth=2;verticalLabelPosition=bottom;verticalAlign=top;align=center;outlineConnect=0;" parent="1" vertex="1">
          <mxGeometry x="920" y="110" width="83" height="62" as="geometry" />
        </mxCell>
        <mxCell id="WvK9PsSX0R_uizibyhHt-9" value="" style="shape=mxgraph.cisco.computers_and_peripherals.workstation;sketch=0;html=1;pointerEvents=1;dashed=0;fillColor=#036897;strokeColor=#ffffff;strokeWidth=2;verticalLabelPosition=bottom;verticalAlign=top;align=center;outlineConnect=0;" parent="1" vertex="1">
          <mxGeometry x="920" y="224" width="83" height="62" as="geometry" />
        </mxCell>
        <mxCell id="WvK9PsSX0R_uizibyhHt-10" value="" style="shape=mxgraph.cisco.computers_and_peripherals.workstation;sketch=0;html=1;pointerEvents=1;dashed=0;fillColor=#036897;strokeColor=#ffffff;strokeWidth=2;verticalLabelPosition=bottom;verticalAlign=top;align=center;outlineConnect=0;" parent="1" vertex="1">
          <mxGeometry x="920" y="329" width="83" height="62" as="geometry" />
        </mxCell>
        <mxCell id="WvK9PsSX0R_uizibyhHt-11" style="edgeStyle=orthogonalEdgeStyle;rounded=0;orthogonalLoop=1;jettySize=auto;html=1;entryX=0.755;entryY=0.5;entryDx=0;entryDy=0;entryPerimeter=0;strokeWidth=3;endArrow=none;endFill=0;" parent="1" source="WvK9PsSX0R_uizibyhHt-1" target="WvK9PsSX0R_uizibyhHt-4" edge="1">
          <mxGeometry relative="1" as="geometry" />
        </mxCell>
        <mxCell id="WvK9PsSX0R_uizibyhHt-12" value="&lt;font style=&quot;font-size: 18px;&quot;&gt;VLAN 20&lt;/font&gt;" style="edgeLabel;html=1;align=center;verticalAlign=middle;resizable=0;points=[];" parent="WvK9PsSX0R_uizibyhHt-11" vertex="1" connectable="0">
          <mxGeometry x="-0.1129" y="1" relative="1" as="geometry">
            <mxPoint y="-1" as="offset" />
          </mxGeometry>
        </mxCell>
        <mxCell id="WvK9PsSX0R_uizibyhHt-16" style="edgeStyle=orthogonalEdgeStyle;rounded=0;orthogonalLoop=1;jettySize=auto;html=1;exitX=0.5;exitY=0.98;exitDx=0;exitDy=0;exitPerimeter=0;entryX=0.755;entryY=0.5;entryDx=0;entryDy=0;entryPerimeter=0;strokeWidth=3;endArrow=none;endFill=0;" parent="1" source="WvK9PsSX0R_uizibyhHt-1" target="WvK9PsSX0R_uizibyhHt-5" edge="1">
          <mxGeometry relative="1" as="geometry">
            <Array as="points">
              <mxPoint x="310" y="360" />
              <mxPoint x="93" y="360" />
            </Array>
          </mxGeometry>
        </mxCell>
        <mxCell id="WvK9PsSX0R_uizibyhHt-17" value="&lt;font style=&quot;font-size: 18px;&quot;&gt;VLAN 30&lt;/font&gt;" style="edgeLabel;html=1;align=center;verticalAlign=middle;resizable=0;points=[];" parent="WvK9PsSX0R_uizibyhHt-16" vertex="1" connectable="0">
          <mxGeometry x="0.4207" relative="1" as="geometry">
            <mxPoint x="5" y="1" as="offset" />
          </mxGeometry>
        </mxCell>
        <mxCell id="WvK9PsSX0R_uizibyhHt-18" value="&lt;font style=&quot;font-size: 18px;&quot;&gt;TRUNK&lt;/font&gt;" style="edgeStyle=orthogonalEdgeStyle;rounded=0;orthogonalLoop=1;jettySize=auto;html=1;exitX=0.98;exitY=0.5;exitDx=0;exitDy=0;exitPerimeter=0;entryX=0;entryY=0.5;entryDx=0;entryDy=0;entryPerimeter=0;endArrow=none;endFill=0;strokeWidth=3;" parent="1" source="WvK9PsSX0R_uizibyhHt-1" target="WvK9PsSX0R_uizibyhHt-2" edge="1">
          <mxGeometry relative="1" as="geometry" />
        </mxCell>
        <mxCell id="WvK9PsSX0R_uizibyhHt-20" value="&lt;font style=&quot;font-size: 18px;&quot;&gt;VLAN 10&lt;/font&gt;" style="edgeStyle=orthogonalEdgeStyle;rounded=0;orthogonalLoop=1;jettySize=auto;html=1;exitX=0.5;exitY=0;exitDx=0;exitDy=0;exitPerimeter=0;entryX=0.11;entryY=0.5;entryDx=0;entryDy=0;entryPerimeter=0;strokeWidth=3;endArrow=none;endFill=0;" parent="1" source="WvK9PsSX0R_uizibyhHt-2" target="WvK9PsSX0R_uizibyhHt-8" edge="1">
          <mxGeometry x="0.4833" y="1" relative="1" as="geometry">
            <Array as="points">
              <mxPoint x="731" y="141" />
            </Array>
            <mxPoint as="offset" />
          </mxGeometry>
        </mxCell>
      </root>
    </mxGraphModel>
  </diagram>
</mxfile>
